<svg width="24" height="24" viewBox="0 0 24 24" fill="none" xmlns="http://www.w3.org/2000/svg">
<path d="M3.41421 13.4142C2.63317 12.6332 2.63316 11.3668 3.41421 10.5858L4.92888 9.07112C8.83413 5.16587 15.1658 5.16587 19.071 9.07111L20.5857 10.5858C21.3667 11.3668 21.3667 12.6332 20.5857 13.4142L19.071 14.9289C15.1658 18.8341 8.83413 18.8341 4.92889 14.9289L3.41421 13.4142Z" stroke="#999999" stroke-width="1.5"/>
<path d="M13.7738 10.2322C14.7501 11.2085 14.7501 12.7915 13.7738 13.7678C12.7974 14.7441 11.2145 14.7441 10.2382 13.7678C9.26192 12.7915 9.26192 11.2085 10.2382 10.2322C11.2145 9.25592 12.7974 9.25592 13.7738 10.2322Z" stroke="#999999" stroke-width="1.5"/>
</svg>
