<svg width="24" height="24" viewBox="0 0 24 24" fill="none" xmlns="http://www.w3.org/2000/svg">
<path fill-rule="evenodd" clip-rule="evenodd" d="M8.0098 17.8185C11.8932 19.3958 16.5119 18.6094 19.662 15.4593L21.1766 13.9446C22.2506 12.8707 22.2506 11.1295 21.1766 10.0555L19.662 8.54084C19.2581 8.13696 18.8301 7.77193 18.3825 7.44576L17.3066 8.52173C17.7622 8.83615 18.1959 9.19608 18.6013 9.6015L20.116 11.1162C20.6041 11.6043 20.6041 12.3958 20.116 12.8839L18.6013 14.3986C16.0523 16.9476 12.3857 17.698 9.1787 16.6496L8.0098 17.8185ZM10.8242 15.0041C12.0019 15.4906 13.4075 15.2553 14.3647 14.2982C15.3219 13.341 15.5572 11.9353 15.0707 10.7576L13.8166 12.0117C13.8136 12.4557 13.6428 12.8988 13.304 13.2375C12.9653 13.5762 12.5222 13.7471 12.0783 13.75L10.8242 15.0041ZM10.3168 11.976L9.05896 13.2338C8.57718 12.0579 8.81369 10.6568 9.76851 9.70196C10.7233 8.74715 12.1244 8.51064 13.3003 8.99242L12.0425 10.2502C11.6027 10.2562 11.1648 10.427 10.8292 10.7626C10.4936 11.0982 10.3228 11.5362 10.3168 11.976ZM14.9423 7.35048C11.7353 6.30217 8.06881 7.05252 5.51982 9.60151L4.00515 11.1162C3.517 11.6043 3.517 12.3958 4.00515 12.8839L5.51983 14.3986C5.92522 14.804 6.35887 15.1639 6.81445 15.4783L5.73848 16.5543C5.291 16.2281 4.86301 15.8631 4.45917 15.4593L2.94449 13.9446C1.87055 12.8707 1.87055 11.1295 2.94449 10.0555L4.45916 8.54085C7.60922 5.39079 12.2278 4.60437 16.1112 6.18157L14.9423 7.35048Z" fill="#999999"/>
<path d="M3.06055 20L20 3" stroke="#999999" stroke-width="1.5" stroke-linecap="round"/>
</svg>
