<svg width="324" height="362" viewBox="0 0 324 362" fill="none" xmlns="http://www.w3.org/2000/svg">
<g clip-path="url(#clip0)">
<path d="M175.75 200.321C186.27 200.321 194.798 191.793 194.798 181.274C194.798 170.754 186.27 162.226 175.75 162.226C165.231 162.226 156.703 170.754 156.703 181.274C156.703 191.793 165.231 200.321 175.75 200.321Z" fill="white"/>
<path d="M175.75 200.985C164.885 200.985 156.038 192.139 156.038 181.274C156.038 170.408 164.885 161.562 175.75 161.562C186.616 161.562 195.462 170.408 195.462 181.274C195.462 192.139 186.616 200.985 175.75 200.985ZM175.75 162.89C165.629 162.89 157.367 171.126 157.367 181.274C157.367 191.422 165.602 199.657 175.75 199.657C185.898 199.657 194.134 191.422 194.134 181.274C194.134 171.126 185.898 162.89 175.75 162.89Z" fill="black"/>
<path d="M172.934 191.156L163.716 184.063C162.892 183.426 162.76 182.257 163.371 181.46C164.008 180.636 165.177 180.503 165.974 181.114L172.456 186.109L185.234 172.002C185.925 171.232 187.094 171.179 187.864 171.869C188.635 172.56 188.688 173.729 187.997 174.499L172.934 191.156Z" fill="#219653"/>
<path d="M22.1476 176.173C33.5623 176.173 42.8157 166.92 42.8157 155.505C42.8157 144.091 33.5623 134.837 22.1476 134.837C10.7329 134.837 1.47951 144.091 1.47951 155.505C1.47951 166.92 10.7329 176.173 22.1476 176.173Z" fill="white"/>
<path d="M22.1476 176.837C10.379 176.837 0.815361 167.274 0.815361 155.505C0.815361 143.736 10.379 134.173 22.1476 134.173C33.9162 134.173 43.4798 143.736 43.4798 155.505C43.4798 167.274 33.9162 176.837 22.1476 176.837ZM22.1476 135.501C11.1228 135.501 2.14364 144.48 2.14364 155.505C2.14364 166.53 11.1228 175.509 22.1476 175.509C33.1723 175.509 42.1515 166.53 42.1515 155.505C42.1515 144.48 33.1723 135.501 22.1476 135.501Z" fill="black"/>
<path d="M33.0661 145.144L27.9123 147.774C23.3165 143.232 18.1893 143.338 13.9654 145.941C9.10385 148.97 6.44728 157.497 10.1133 164.086C10.9369 165.547 12.1589 166.689 13.3809 167.672C9.21011 164.989 6.42072 160.287 6.42072 154.947C6.42072 146.606 13.195 139.831 21.5366 139.831C26.159 139.805 30.3032 141.877 33.0661 145.144Z" fill="black"/>
<path d="M35.882 146.313L24.6713 152.078C23.9275 151.547 23.0243 151.202 22.0413 151.202C19.5973 151.202 17.6314 153.167 17.6314 155.611C17.6314 158.055 19.5973 160.021 22.0413 160.021C24.4854 160.021 26.4512 158.055 26.4512 155.611C26.4512 155.213 26.3981 154.841 26.3184 154.496L35.882 146.313ZM22.0413 157.63C20.9256 157.63 20.0489 156.727 20.0489 155.638C20.0489 154.522 20.9521 153.646 22.0413 153.646C23.1571 153.646 24.0338 154.549 24.0338 155.638C24.0338 156.727 23.1305 157.63 22.0413 157.63Z" fill="black"/>
<path d="M148.839 26.8919H137.682V25.5636H148.335C148.6 24.7667 149.291 23.2259 150.752 22.3226C151.788 21.6851 153.01 21.4725 154.392 21.7116C154.87 19.4004 156.676 16 161.06 16C162.786 16 165.788 16.8767 166.824 19.9848C167.807 19.6129 169.614 19.1613 171.394 19.8786C172.934 20.5162 174.103 21.871 174.821 23.9431H180.453V25.2714H173.864L173.731 24.7932C173.147 22.8539 172.191 21.6054 170.915 21.1006C168.923 20.2771 166.745 21.446 166.718 21.4725L165.921 21.8976L165.709 21.0475C165.124 18.1253 162.494 17.3283 161.06 17.3283C156.145 17.3283 155.64 22.3492 155.614 22.5617L155.534 23.3321L154.764 23.1196C153.462 22.7742 152.346 22.8805 151.443 23.4118C149.929 24.3416 149.477 26.3075 149.477 26.334L149.371 26.8654L148.839 26.8919Z" fill="black"/>
<path d="M260.814 69.264C270.204 69.264 277.816 61.652 277.816 52.262C277.816 42.8721 270.204 35.26 260.814 35.26C251.424 35.26 243.812 42.8721 243.812 52.262C243.812 61.652 251.424 69.264 260.814 69.264Z" fill="black"/>
<path d="M213.527 63.6855H278.613C278.613 63.6855 276.487 55.4501 269.58 58.1067C269.58 58.1067 266.924 48.8087 257.094 53.3249C257.094 53.3249 243.28 34.4633 226.81 58.3724C226.81 58.3724 219.106 52.7936 213.527 63.6855Z" fill="white"/>
<path d="M279.463 64.3495H212.438L212.942 63.3931C214.935 59.5145 217.405 57.2033 220.328 56.5126C223.17 55.8219 225.588 56.8845 226.65 57.4955C232.149 49.6852 237.967 45.7004 243.944 45.6207C251.037 45.5144 256.005 50.9338 257.307 52.5278C260.389 51.226 263.098 51.0932 265.41 52.1558C268.172 53.431 269.501 56.061 270.005 57.283C271.812 56.7251 273.459 56.8314 274.947 57.6018C278.134 59.2489 279.224 63.3665 279.277 63.5525L279.463 64.3495ZM214.643 63.0212H277.683C277.231 61.8523 276.169 59.7005 274.309 58.7441C273.007 58.08 271.493 58.08 269.819 58.7176L269.129 58.9832L268.916 58.2925C268.916 58.2659 267.854 54.7327 264.798 53.3247C262.753 52.3949 260.256 52.5809 257.334 53.9357L256.829 54.1748L256.51 53.7498C256.457 53.6701 251.356 46.8427 243.891 46.949C238.233 47.0287 232.654 51.0135 227.314 58.7707L226.916 59.3286L226.358 58.9301C226.331 58.9035 223.701 57.0439 220.54 57.8143C218.335 58.3456 216.343 60.099 214.643 63.0212Z" fill="black"/>
<path d="M77.2828 76.5367H64V75.2084H76.2468C76.5656 74.1989 77.4954 72.0205 79.4612 71.2236C80.7629 70.6923 82.2506 70.8517 83.8711 71.7283C84.6149 70.2672 86.4214 68.5139 89.6359 69.1249L89.3702 70.4266C85.7573 69.7625 84.854 72.7378 84.8275 72.8706L84.5884 73.7208L83.8445 73.2426C82.3303 72.2862 81.0286 72.0205 79.966 72.4456C78.0532 73.216 77.4157 75.9788 77.3891 76.0054L77.2828 76.5367Z" fill="black"/>
<path d="M41.9921 307.142C41.9921 307.142 47.8366 317.502 88.2164 320.956C88.2164 320.956 111.594 321.222 115.048 309.267L113.719 301.032L44.6487 298.641L41.9921 307.142Z" fill="white"/>
<path d="M88.4289 321.62C88.3226 321.62 88.2429 321.62 88.2164 321.62H88.1632C47.8897 318.167 41.6733 307.912 41.4077 307.461L41.2749 307.222L44.1705 297.95L44.6753 297.977L114.304 300.394L115.738 309.32L115.685 309.453C112.285 321.275 90.9792 321.62 88.4289 321.62ZM88.2429 320.292C89.093 320.292 110.983 320.265 114.357 309.214L113.135 301.669L45.1269 299.305L42.7094 307.009C43.2407 307.673 45.18 309.825 50.4931 312.243C56.3907 314.952 67.7077 318.539 88.2429 320.292Z" fill="black"/>
<path d="M108.22 177.794C108.22 177.794 116.562 179.813 119.803 173.57C120.547 172.162 120.573 170.594 119.776 169.213C118.926 167.752 117.04 166.211 112.949 166.982C111.116 167.327 107.769 168.018 106.44 170.674L108.22 177.794Z" fill="black"/>
<path d="M111.222 178.777C109.416 178.777 108.087 178.458 108.061 178.458L107.662 178.352L105.723 170.621L105.829 170.408C107.344 167.38 111.036 166.689 112.816 166.344C117.279 165.494 119.378 167.247 120.334 168.894C121.237 170.435 121.264 172.215 120.387 173.889C118.289 177.98 114.118 178.777 111.222 178.777ZM108.752 177.236C110.372 177.528 116.588 178.325 119.218 173.278C119.883 172.029 119.856 170.701 119.192 169.558C118.103 167.725 116.057 167.088 113.055 167.646C111.541 167.938 108.433 168.522 107.131 170.78L108.752 177.236Z" fill="black"/>
<path d="M109.735 171.418C109.735 171.418 110.399 182.336 106.069 187.304L105.192 171.71L109.735 171.418Z" fill="black"/>
<path d="M79.6091 212.09L83.222 189.775L98.8692 191.767L99.2677 213.259L79.6091 212.09Z" fill="white"/>
<path d="M99.9584 213.976L78.8387 212.728L82.6642 189.031L99.5068 191.183L99.9584 213.976ZM80.3795 211.479L98.6035 212.568L98.2051 192.352L83.7533 190.519L80.3795 211.479Z" fill="black"/>
<path d="M82.5313 191.422C82.5313 191.422 87.6054 204.333 98.4441 202.367C98.4441 202.367 107.078 201.304 107.636 188.473L108.008 170.276L82.3719 168.629L81.5484 181.433C81.5484 181.433 77.4838 181.965 78.0417 186.029C78.5996 190.094 82.5313 191.422 82.5313 191.422Z" fill="white"/>
<path d="M96.2392 203.217C92.4403 203.217 88.9071 201.464 85.9317 198.063C83.6736 195.487 82.3985 192.777 82.0266 191.927C81.0436 191.502 77.9089 189.908 77.4041 186.109C76.9525 182.762 79.2903 181.3 80.9374 180.875L81.7609 167.911L108.672 169.638L108.3 188.473C108.008 195.354 105.404 198.94 103.253 200.72C100.994 202.606 98.7895 202.951 98.5504 203.005C97.7534 203.164 96.983 203.217 96.2392 203.217ZM83.0095 169.319L82.186 182.018L81.6547 182.097C81.3093 182.151 78.2808 182.682 78.7059 185.949C79.1841 189.536 82.5845 190.731 82.7438 190.784L83.0361 190.891L83.1423 191.183C83.1955 191.289 87.4725 201.889 96.2392 201.889C96.9033 201.889 97.594 201.836 98.3113 201.703H98.3379C98.6567 201.65 106.44 200.507 106.945 188.447L107.291 170.887L83.0095 169.319Z" fill="black"/>
<path d="M86.649 173.198C86.649 173.198 78.2543 174.207 78.334 175.244C78.4402 176.864 78.7059 179.308 79.5028 182.018C79.5028 182.018 82.9564 180.424 84.3909 183.505L86.2505 183.904L86.649 173.198Z" fill="white"/>
<path d="M86.8615 184.701L83.9127 184.09L83.7799 183.798C82.6642 181.407 80.0607 182.496 79.7685 182.629L79.0778 182.948L78.8653 182.204C78.2277 180.052 77.8558 177.767 77.6698 175.297C77.6432 174.739 77.5635 173.596 86.5693 172.534L87.3397 172.454L86.8615 184.701ZM84.816 182.921L85.5864 183.08L85.9317 173.942C82.9298 174.34 79.7419 174.951 78.9981 175.403C79.1575 177.448 79.4497 179.335 79.9279 181.141C81.4156 180.716 83.6205 180.743 84.816 182.921Z" fill="black"/>
<path d="M78.573 167.752C80.2467 161.057 89.4118 156.621 99.188 159.49C105.192 161.27 106.972 165.733 106.972 165.733L100.224 167.752C100.224 167.752 94.3265 171.126 91.0855 173.889C88.5086 176.094 85.8255 176.891 84.0987 177.156C78.4668 177.98 78.8121 177.13 78.8121 177.13C77.8026 174.181 77.9355 170.276 78.573 167.752Z" fill="black"/>
<path d="M80.2739 178.166C78.7331 178.166 78.494 177.847 78.3346 177.634C78.2284 177.502 78.1752 177.369 78.1752 177.236C77.1392 174.101 77.3251 170.063 77.9361 167.593C78.68 164.644 80.8052 162.04 83.9134 160.26C88.2968 157.763 93.9287 157.259 99.3746 158.879C105.618 160.739 107.504 165.308 107.583 165.494L107.849 166.158L100.49 168.363C99.8528 168.735 94.5131 171.843 91.5378 174.393C88.6687 176.864 85.7199 177.581 84.2322 177.794C82.3726 178.086 81.124 178.166 80.2739 178.166ZM79.3973 176.784C79.7426 176.864 80.8052 176.97 84.0197 176.492C85.3745 176.306 88.0577 175.642 90.6611 173.384C93.9287 170.595 99.6669 167.3 99.9059 167.168L99.9591 167.141L106.016 165.334C105.272 164.086 103.253 161.403 99.0027 160.154C93.9021 158.64 88.6421 159.118 84.5776 161.429C81.7882 163.023 79.8754 165.335 79.2379 167.938C78.6534 170.196 78.4675 173.915 79.3973 176.784Z" fill="black"/>
<path d="M87.3132 175.855C87.3132 175.855 98.8958 179.893 106.44 170.701C106.44 170.701 110.425 164.777 117.917 167.433C117.917 167.433 114.224 163.714 104.528 166.557C101.898 167.327 98.8427 167.965 94.6453 170.701C90.7136 173.304 88.5883 175.669 87.3132 175.855Z" fill="white"/>
<path d="M93.317 177.395C89.7838 177.395 87.2069 176.519 87.1006 176.465L84.4972 175.562L87.2069 175.19C87.7382 175.111 88.7743 174.287 89.9697 173.357C91.112 172.454 92.52 171.338 94.2734 170.169C97.9925 167.725 100.941 166.902 103.306 166.238C103.651 166.131 103.996 166.052 104.315 165.945C114.304 163.023 118.209 166.822 118.368 167.008L120.414 169.08L117.678 168.097C110.771 165.627 107.025 171.046 106.972 171.099L106.945 171.152C102.881 176.093 97.7003 177.262 94.0608 177.395C93.8217 177.395 93.5561 177.395 93.317 177.395ZM89.1727 175.642C90.3682 175.881 92.095 176.12 94.0608 176.04C98.9223 175.854 102.907 173.915 105.909 170.302C106.175 169.957 108.459 166.902 112.577 166.211C110.638 166.025 108.034 166.211 104.714 167.194C104.368 167.3 104.023 167.38 103.678 167.486C101.287 168.15 98.577 168.921 95.0172 171.259C93.2904 172.401 91.909 173.49 90.7933 174.393C90.1822 174.871 89.6509 175.297 89.1727 175.642Z" fill="black"/>
<path d="M113.427 361.07L110.399 299.677L55.5406 296.887C48.7398 310.197 41.1154 361.07 41.1154 361.07H76.1556L79.4497 349.036L81.0436 361.07H113.427Z" fill="white"/>
<path d="M114.118 361.734H80.4592L79.2106 352.357L76.6337 361.734H40.345L40.4513 360.964C40.7701 358.892 48.1553 309.825 54.9561 296.569L55.1421 296.197L111.036 299.039L114.118 361.734ZM81.6281 360.406H112.71L109.761 300.314L55.9391 297.578C49.7493 310.277 42.8688 354.083 41.8858 360.406H75.6242L79.6622 345.689L81.6281 360.406Z" fill="black"/>
<path d="M100.118 207.574C100.118 207.574 99.6396 218.678 79.4231 205.608L58.5957 212.701C52.9372 214.64 48.4476 219.024 46.4552 224.655L36.5196 252.496L52.1402 255.684L42.1781 306.425C42.1781 306.425 55.8328 301.297 76.8197 301.563C95.7345 301.802 114.862 308.948 114.862 308.948L113.959 247.475L132.448 248.432L125.143 225.904C123.442 220.644 119.59 216.34 114.543 214.082L100.118 207.574Z" fill="black"/>
<path d="M115.499 309.931L114.596 309.586C114.41 309.506 95.336 302.466 76.7931 302.227C56.1782 301.961 42.5234 307.009 42.3906 307.062L41.2749 307.487L51.3432 256.215L35.6164 253.001L45.8176 224.443C47.9163 218.572 52.4856 214.082 58.3831 212.063L79.5028 204.864L79.7685 205.05C90.2619 211.851 95.1234 211.904 97.3284 210.762C99.3208 209.726 99.4271 207.574 99.4271 207.547L99.4802 206.564L114.782 213.471C119.989 215.809 123.974 220.272 125.727 225.691L133.325 249.122L114.57 248.166L115.499 309.931ZM75.2523 300.899C75.7571 300.899 76.2884 300.899 76.8197 300.899C93.2904 301.111 110.133 306.61 114.171 308.018L113.268 246.785L131.518 247.714L124.532 226.117C122.885 221.042 119.165 216.872 114.304 214.693L100.676 208.557C100.41 209.54 99.7459 211.054 98.0191 211.957C94.3796 213.843 88.1101 211.957 79.3966 206.352L58.8613 213.338C53.3622 215.198 49.0852 219.422 47.1193 224.895L37.4228 251.991L52.9372 255.179L43.0548 305.442C46.588 304.273 58.5425 300.899 75.2523 300.899Z" fill="black"/>
<path d="M210.445 214.215H96.1064V284.667H210.445V214.215Z" fill="white"/>
<path d="M211.109 285.332H95.4422V213.551H211.109V285.332ZM96.7705 284.003H209.781V214.88H96.7705V284.003Z" fill="black"/>
<path d="M210.445 214.215H143.898V284.667H210.445V214.215Z" fill="white"/>
<path d="M211.109 285.332H143.234V213.551H211.109V285.332ZM144.562 284.003H209.781V214.88H144.562V284.003Z" fill="black"/>
<path d="M112.71 214.215V242.375L118.9 234.272L125.116 242.375V214.215H112.71Z" fill="white"/>
<path d="M125.78 244.314L118.9 235.362L112.046 244.314V213.551H125.78V244.314ZM118.9 233.183L124.452 240.409V214.88H113.374V240.409L118.9 233.183Z" fill="black"/>
<path d="M37.2634 252.629C37.2634 252.629 25.4417 281.958 36.2539 286.261C47.3318 290.671 105.909 285.703 105.909 285.703L121.902 288.546L136.513 284.588C136.513 284.588 136.513 277.92 128.915 277.92C123.389 277.92 114.012 273.005 114.012 273.005C114.012 273.005 117.385 263.282 112.179 262.963L104.262 272.739L59.2864 267.532L64.1479 256.508L37.2634 252.629Z" fill="white"/>
<path d="M121.928 289.237L105.856 286.368C102.429 286.66 46.9599 291.229 35.9883 286.872C34.2349 286.182 32.9332 284.827 32.0831 282.914C28.1248 273.669 36.2805 253.24 36.6259 252.364L36.8118 251.885L65.1042 255.977L60.2427 266.975L103.97 272.022L111.833 262.299L112.179 262.326C113.374 262.405 114.277 262.91 114.888 263.813C116.509 266.258 115.26 271.066 114.782 272.713C116.774 273.696 124.319 277.282 128.888 277.282C137.071 277.282 137.15 284.535 137.15 284.614V285.119L121.928 289.237ZM105.909 285.039L121.848 287.882L135.795 284.11C135.609 282.675 134.627 278.611 128.888 278.611C123.283 278.611 114.065 273.829 113.666 273.643L113.162 273.377L113.347 272.846C113.905 271.199 115.101 266.523 113.799 264.584C113.48 264.106 113.029 263.84 112.444 263.734L104.554 273.483L104.182 273.43L58.3034 268.144L63.1915 257.092L37.6885 253.4C36.4665 256.561 29.9047 274.44 33.3317 282.436C34.0224 284.057 35.0585 285.119 36.493 285.704C47.2787 290.007 105.245 285.146 105.829 285.093L105.909 285.039Z" fill="black"/>
<path d="M88.9024 315.98L77.8862 352.197L79.157 352.583L90.1731 316.366L88.9024 315.98Z" fill="black"/>
<path d="M67.6947 244.426L61.8501 256.914L63.0531 257.477L68.8977 244.989L67.6947 244.426Z" fill="white"/>
<path d="M243.227 296.223L255.394 361.07H289.451L281.163 292.982L243.227 296.223Z" fill="black"/>
<path d="M290.195 361.734H254.836L242.43 295.639L281.747 292.292L290.195 361.734ZM255.952 360.406H288.707L280.578 293.699L243.997 296.834L255.952 360.406Z" fill="black"/>
<path d="M288.787 250.291C288.787 250.291 299.121 283.578 268.464 279.248L266.472 251.221L288.787 250.291Z" fill="white"/>
<path d="M273.618 280.31C271.971 280.31 270.244 280.178 268.385 279.912L267.853 279.832L265.781 250.584L289.292 249.601L289.451 250.079C289.664 250.743 294.419 266.496 287.14 275.05C284.138 278.557 279.622 280.31 273.618 280.31ZM269.102 278.663C277.019 279.673 282.73 278.185 286.104 274.2C292.241 267.001 289.026 253.692 288.282 250.982L267.163 251.885L269.102 278.663Z" fill="black"/>
<path d="M267.402 292.664L243.732 361.07H210.658L220.699 290.379L267.402 292.664Z" fill="black"/>
<path d="M244.21 361.734H209.887L220.141 289.688L268.332 292.026L244.21 361.734ZM211.401 360.406H243.254L266.498 293.275L221.284 291.07L211.401 360.406Z" fill="black"/>
<path d="M211.348 250.132L223.622 255.684L217.458 297.844C217.458 297.844 253.455 313.518 284.244 297.844L279.356 252.443L290.301 251.46L275.478 218.041L254.783 212.515L243.599 213.365L228.935 219.661C224.1 221.733 220.327 225.718 218.521 230.633L211.348 250.132Z" fill="white"/>
<path d="M253.136 305.468C248.009 305.468 243.28 305.017 239.216 304.379C226.438 302.44 217.299 298.508 217.193 298.455L216.714 298.242L222.878 256.083L210.498 250.477L217.857 230.42C219.716 225.346 223.648 221.202 228.642 219.05L243.413 212.701L254.81 211.851L254.916 211.877L275.929 217.483L291.258 252.018L280.074 253.001L284.935 298.189L284.537 298.402C274.017 303.795 262.886 305.468 253.136 305.468ZM218.202 297.445C220.195 298.269 228.456 301.404 239.455 303.077C250.958 304.831 267.933 305.256 283.554 297.472L278.639 251.859L289.318 250.902L274.973 218.625L254.703 213.232L243.758 214.056L229.2 220.299C224.551 222.291 220.885 226.17 219.159 230.898L212.225 249.787L224.392 255.286L218.202 297.445Z" fill="black"/>
<path d="M236.931 172.985C236.931 172.985 225.242 204.439 241.792 204.784V219.05H261.584V175.243L236.931 172.985Z" fill="white"/>
<path d="M262.221 219.688H241.102V205.395C238.153 205.183 235.895 203.961 234.407 201.782C228.722 193.414 235.975 173.596 236.267 172.746L236.453 172.268L262.221 174.632V219.688ZM242.457 218.359H260.893V175.854L237.356 173.676C236.293 176.757 230.661 193.892 235.496 201.012C236.878 203.031 238.923 204.014 241.766 204.093H242.43V218.359H242.457Z" fill="black"/>
<path d="M287.99 204.598C283.447 203.137 278.24 203.695 275.026 190.651C272.901 182.071 270.005 167.778 248.753 166.981C242.43 166.742 228.324 168.283 237.728 188.712C237.728 188.712 241.66 200.56 239.986 220.511C238.605 237.248 246.309 273.855 292.055 254.728C306.719 248.565 322.871 215.783 287.99 204.598Z" fill="black"/>
<path d="M211.481 249.494L204.441 270.109L174.422 280.709L159.598 278.955C159.598 278.955 158.695 281.851 164.168 284.587H148.653C148.653 284.587 153.037 287.085 168.923 290.99C168.923 290.99 213.367 284.534 219.212 280.018C223.701 276.538 234.62 256.375 234.62 256.375L211.481 249.494Z" fill="white"/>
<path d="M168.87 291.681L168.737 291.654C152.93 287.776 148.467 285.305 148.281 285.199L146.103 283.95H161.724C158.164 281.373 158.881 278.903 158.934 278.77L159.094 278.238L174.316 280.018L203.883 269.578L211.029 248.644L235.523 255.976L235.124 256.694C234.673 257.517 224.1 277.016 219.53 280.55C213.606 285.119 170.756 291.388 168.923 291.654L168.87 291.681ZM151.815 285.278C154.657 286.368 159.944 288.121 168.923 290.326C171.553 289.927 213.287 283.764 218.787 279.514C222.639 276.538 231.644 260.413 233.637 256.8L211.933 250.318L204.999 270.641L174.528 281.4L160.236 279.726C160.342 280.576 161.033 282.303 164.46 284.03L166.984 285.278H151.815Z" fill="black"/>
<path d="M261.038 310.918L250.946 340.931L252.205 341.354L262.297 311.341L261.038 310.918Z" fill="white"/>
<path d="M323.482 360.672H9.63514V362H323.482V360.672Z" fill="black"/>
</g>
<defs>
<clipPath id="clip0">
<rect width="322.826" height="362" fill="white" transform="translate(0.815353)"/>
</clipPath>
</defs>
</svg>
